<mxfile host="Electron" modified="2023-05-08T00:22:22.388Z" agent="Mozilla/5.0 (Windows NT 10.0; Win64; x64) AppleWebKit/537.36 (KHTML, like Gecko) draw.io/21.1.2 Chrome/106.0.5249.199 Electron/21.4.3 Safari/537.36" etag="CpHmtHQxuOhKdUpnYs8p" version="21.1.2" type="device">
  <diagram name="Page-1" id="KcjiusywgjbRNAzfdaUy">
    <mxGraphModel dx="792" dy="845" grid="1" gridSize="10" guides="1" tooltips="1" connect="1" arrows="1" fold="1" page="1" pageScale="1" pageWidth="850" pageHeight="1100" math="0" shadow="0">
      <root>
        <mxCell id="0" />
        <mxCell id="1" parent="0" />
        <mxCell id="C1bN3_J689wvFg44kgmb-7" style="edgeStyle=orthogonalEdgeStyle;rounded=0;orthogonalLoop=1;jettySize=auto;html=1;entryX=0.25;entryY=0;entryDx=0;entryDy=0;entryPerimeter=0;" edge="1" parent="1" source="C1bN3_J689wvFg44kgmb-1" target="C1bN3_J689wvFg44kgmb-3">
          <mxGeometry relative="1" as="geometry" />
        </mxCell>
        <mxCell id="C1bN3_J689wvFg44kgmb-1" value="" style="sketch=0;outlineConnect=0;fontColor=#232F3E;gradientColor=none;fillColor=#0070f0;strokeColor=none;dashed=0;verticalLabelPosition=bottom;verticalAlign=top;align=center;html=1;fontSize=12;fontStyle=0;aspect=fixed;pointerEvents=1;shape=mxgraph.aws4.user;" vertex="1" parent="1">
          <mxGeometry x="403" y="400" width="30" height="30" as="geometry" />
        </mxCell>
        <mxCell id="C1bN3_J689wvFg44kgmb-9" style="edgeStyle=orthogonalEdgeStyle;rounded=0;orthogonalLoop=1;jettySize=auto;html=1;" edge="1" parent="1" source="C1bN3_J689wvFg44kgmb-3" target="C1bN3_J689wvFg44kgmb-5">
          <mxGeometry relative="1" as="geometry" />
        </mxCell>
        <mxCell id="C1bN3_J689wvFg44kgmb-10" style="edgeStyle=orthogonalEdgeStyle;rounded=0;orthogonalLoop=1;jettySize=auto;html=1;" edge="1" parent="1" source="C1bN3_J689wvFg44kgmb-3" target="C1bN3_J689wvFg44kgmb-6">
          <mxGeometry relative="1" as="geometry" />
        </mxCell>
        <mxCell id="C1bN3_J689wvFg44kgmb-3" value="CloudFront" style="sketch=0;points=[[0,0,0],[0.25,0,0],[0.5,0,0],[0.75,0,0],[1,0,0],[0,1,0],[0.25,1,0],[0.5,1,0],[0.75,1,0],[1,1,0],[0,0.25,0],[0,0.5,0],[0,0.75,0],[1,0.25,0],[1,0.5,0],[1,0.75,0]];outlineConnect=0;fontColor=#232F3E;gradientColor=#945DF2;gradientDirection=north;fillColor=#5A30B5;strokeColor=#ffffff;dashed=0;verticalLabelPosition=bottom;verticalAlign=top;align=center;html=1;fontSize=12;fontStyle=0;aspect=fixed;shape=mxgraph.aws4.resourceIcon;resIcon=mxgraph.aws4.cloudfront;" vertex="1" parent="1">
          <mxGeometry x="396" y="506" width="89" height="89" as="geometry" />
        </mxCell>
        <mxCell id="C1bN3_J689wvFg44kgmb-8" style="edgeStyle=orthogonalEdgeStyle;rounded=0;orthogonalLoop=1;jettySize=auto;html=1;entryX=0.75;entryY=0;entryDx=0;entryDy=0;entryPerimeter=0;" edge="1" parent="1" source="C1bN3_J689wvFg44kgmb-4" target="C1bN3_J689wvFg44kgmb-3">
          <mxGeometry relative="1" as="geometry" />
        </mxCell>
        <mxCell id="C1bN3_J689wvFg44kgmb-4" value="" style="sketch=0;outlineConnect=0;fontColor=#232F3E;gradientColor=none;fillColor=#e09900;strokeColor=none;dashed=0;verticalLabelPosition=bottom;verticalAlign=top;align=center;html=1;fontSize=12;fontStyle=0;aspect=fixed;pointerEvents=1;shape=mxgraph.aws4.user;" vertex="1" parent="1">
          <mxGeometry x="447" y="400" width="30" height="30" as="geometry" />
        </mxCell>
        <mxCell id="C1bN3_J689wvFg44kgmb-5" value="Edge Location" style="sketch=0;outlineConnect=0;fontColor=#232F3E;gradientColor=none;fillColor=#4D27AA;strokeColor=none;dashed=0;verticalLabelPosition=middle;verticalAlign=middle;align=right;html=1;fontSize=12;fontStyle=0;aspect=fixed;pointerEvents=1;shape=mxgraph.aws4.edge_location;labelPosition=left;spacingRight=10;" vertex="1" parent="1">
          <mxGeometry x="260" y="620" width="78" height="78" as="geometry" />
        </mxCell>
        <mxCell id="C1bN3_J689wvFg44kgmb-31" style="edgeStyle=orthogonalEdgeStyle;rounded=0;orthogonalLoop=1;jettySize=auto;html=1;entryX=0.5;entryY=0;entryDx=0;entryDy=0;" edge="1" parent="1" source="C1bN3_J689wvFg44kgmb-6" target="C1bN3_J689wvFg44kgmb-27">
          <mxGeometry relative="1" as="geometry" />
        </mxCell>
        <mxCell id="C1bN3_J689wvFg44kgmb-6" value="Edge Location" style="sketch=0;outlineConnect=0;fontColor=#232F3E;gradientColor=none;fillColor=#4D27AA;strokeColor=none;dashed=0;verticalLabelPosition=middle;verticalAlign=middle;align=left;html=1;fontSize=12;fontStyle=0;aspect=fixed;pointerEvents=1;shape=mxgraph.aws4.edge_location;labelPosition=right;spacingLeft=10;" vertex="1" parent="1">
          <mxGeometry x="540" y="620" width="78" height="78" as="geometry" />
        </mxCell>
        <mxCell id="C1bN3_J689wvFg44kgmb-11" value="Invalidate" style="text;html=1;align=center;verticalAlign=middle;resizable=0;points=[];autosize=1;strokeColor=none;fillColor=none;" vertex="1" parent="1">
          <mxGeometry x="500" y="520" width="70" height="30" as="geometry" />
        </mxCell>
        <mxCell id="C1bN3_J689wvFg44kgmb-12" value="Invalidate" style="text;html=1;align=center;verticalAlign=middle;resizable=0;points=[];autosize=1;strokeColor=none;fillColor=none;" vertex="1" parent="1">
          <mxGeometry x="310" y="520" width="70" height="30" as="geometry" />
        </mxCell>
        <mxCell id="C1bN3_J689wvFg44kgmb-14" value="Cache" style="html=1;align=center;verticalAlign=top;rounded=1;absoluteArcSize=1;arcSize=20;dashed=1;whiteSpace=wrap;" vertex="1" parent="1">
          <mxGeometry x="219" y="730" width="160" height="100" as="geometry" />
        </mxCell>
        <mxCell id="C1bN3_J689wvFg44kgmb-15" value="index.html" style="sketch=0;pointerEvents=1;shadow=0;dashed=0;html=1;strokeColor=none;fillColor=#005F4B;labelPosition=center;verticalLabelPosition=bottom;verticalAlign=top;align=center;outlineConnect=0;shape=mxgraph.veeam2.file;" vertex="1" parent="1">
          <mxGeometry x="239" y="760.5" width="28.000000000000004" height="39" as="geometry" />
        </mxCell>
        <mxCell id="C1bN3_J689wvFg44kgmb-24" style="edgeStyle=orthogonalEdgeStyle;rounded=0;orthogonalLoop=1;jettySize=auto;html=1;" edge="1" parent="1" source="C1bN3_J689wvFg44kgmb-22" target="C1bN3_J689wvFg44kgmb-23">
          <mxGeometry relative="1" as="geometry" />
        </mxCell>
        <mxCell id="C1bN3_J689wvFg44kgmb-22" value="" style="sketch=0;outlineConnect=0;fontColor=#232F3E;gradientColor=none;fillColor=#0070f0;strokeColor=none;dashed=0;verticalLabelPosition=bottom;verticalAlign=top;align=center;html=1;fontSize=12;fontStyle=0;aspect=fixed;pointerEvents=1;shape=mxgraph.aws4.user;" vertex="1" parent="1">
          <mxGeometry x="40" y="924" width="70" height="70" as="geometry" />
        </mxCell>
        <mxCell id="C1bN3_J689wvFg44kgmb-23" value="S3 Bucket (origin)" style="sketch=0;outlineConnect=0;fontColor=#232F3E;gradientColor=none;fillColor=#3F8624;strokeColor=none;dashed=0;verticalLabelPosition=bottom;verticalAlign=top;align=center;html=1;fontSize=12;fontStyle=0;aspect=fixed;pointerEvents=1;shape=mxgraph.aws4.bucket;" vertex="1" parent="1">
          <mxGeometry x="262" y="920" width="75" height="78" as="geometry" />
        </mxCell>
        <mxCell id="C1bN3_J689wvFg44kgmb-25" value="update files" style="text;html=1;align=center;verticalAlign=middle;resizable=0;points=[];autosize=1;strokeColor=none;fillColor=none;" vertex="1" parent="1">
          <mxGeometry x="140" y="924" width="80" height="30" as="geometry" />
        </mxCell>
        <mxCell id="C1bN3_J689wvFg44kgmb-26" value="/images/" style="sketch=0;pointerEvents=1;shadow=0;dashed=0;html=1;strokeColor=none;fillColor=#005F4B;labelPosition=center;verticalLabelPosition=bottom;verticalAlign=top;align=center;outlineConnect=0;shape=mxgraph.veeam2.folder;" vertex="1" parent="1">
          <mxGeometry x="318.99999999999994" y="760.5" width="46.08" height="39.5" as="geometry" />
        </mxCell>
        <mxCell id="C1bN3_J689wvFg44kgmb-27" value="Cache" style="html=1;align=center;verticalAlign=top;rounded=1;absoluteArcSize=1;arcSize=20;dashed=1;whiteSpace=wrap;" vertex="1" parent="1">
          <mxGeometry x="499" y="730" width="160" height="100" as="geometry" />
        </mxCell>
        <mxCell id="C1bN3_J689wvFg44kgmb-28" value="index.html" style="sketch=0;pointerEvents=1;shadow=0;dashed=0;html=1;strokeColor=none;fillColor=#005F4B;labelPosition=center;verticalLabelPosition=bottom;verticalAlign=top;align=center;outlineConnect=0;shape=mxgraph.veeam2.file;" vertex="1" parent="1">
          <mxGeometry x="519" y="760.5" width="28.000000000000004" height="39" as="geometry" />
        </mxCell>
        <mxCell id="C1bN3_J689wvFg44kgmb-29" value="/images/" style="sketch=0;pointerEvents=1;shadow=0;dashed=0;html=1;strokeColor=none;fillColor=#005F4B;labelPosition=center;verticalLabelPosition=bottom;verticalAlign=top;align=center;outlineConnect=0;shape=mxgraph.veeam2.folder;" vertex="1" parent="1">
          <mxGeometry x="599" y="760.5" width="46.08" height="39.5" as="geometry" />
        </mxCell>
        <mxCell id="C1bN3_J689wvFg44kgmb-32" value="" style="points=[[0.145,0.145,0],[0.5,0,0],[0.855,0.145,0],[1,0.5,0],[0.855,0.855,0],[0.5,1,0],[0.145,0.855,0],[0,0.5,0]];shape=mxgraph.bpmn.event;html=1;verticalLabelPosition=bottom;labelBackgroundColor=#ffffff;verticalAlign=top;align=center;perimeter=ellipsePerimeter;outlineConnect=0;aspect=fixed;outline=end;symbol=cancel;strokeColor=#e60000;fillColor=none;" vertex="1" parent="1">
          <mxGeometry x="228" y="755" width="50" height="50" as="geometry" />
        </mxCell>
        <mxCell id="C1bN3_J689wvFg44kgmb-33" value="" style="points=[[0.145,0.145,0],[0.5,0,0],[0.855,0.145,0],[1,0.5,0],[0.855,0.855,0],[0.5,1,0],[0.145,0.855,0],[0,0.5,0]];shape=mxgraph.bpmn.event;html=1;verticalLabelPosition=bottom;labelBackgroundColor=#ffffff;verticalAlign=top;align=center;perimeter=ellipsePerimeter;outlineConnect=0;aspect=fixed;outline=end;symbol=cancel;strokeColor=#e60000;fillColor=none;" vertex="1" parent="1">
          <mxGeometry x="320" y="755" width="50" height="50" as="geometry" />
        </mxCell>
        <mxCell id="C1bN3_J689wvFg44kgmb-34" value="" style="points=[[0.145,0.145,0],[0.5,0,0],[0.855,0.145,0],[1,0.5,0],[0.855,0.855,0],[0.5,1,0],[0.145,0.855,0],[0,0.5,0]];shape=mxgraph.bpmn.event;html=1;verticalLabelPosition=bottom;labelBackgroundColor=#ffffff;verticalAlign=top;align=center;perimeter=ellipsePerimeter;outlineConnect=0;aspect=fixed;outline=end;symbol=cancel;strokeColor=#e60000;fillColor=none;" vertex="1" parent="1">
          <mxGeometry x="508" y="755" width="50" height="50" as="geometry" />
        </mxCell>
        <mxCell id="C1bN3_J689wvFg44kgmb-35" value="" style="points=[[0.145,0.145,0],[0.5,0,0],[0.855,0.145,0],[1,0.5,0],[0.855,0.855,0],[0.5,1,0],[0.145,0.855,0],[0,0.5,0]];shape=mxgraph.bpmn.event;html=1;verticalLabelPosition=bottom;labelBackgroundColor=#ffffff;verticalAlign=top;align=center;perimeter=ellipsePerimeter;outlineConnect=0;aspect=fixed;outline=end;symbol=cancel;strokeColor=#e60000;fillColor=none;" vertex="1" parent="1">
          <mxGeometry x="599" y="755" width="50" height="50" as="geometry" />
        </mxCell>
        <mxCell id="C1bN3_J689wvFg44kgmb-30" style="edgeStyle=orthogonalEdgeStyle;rounded=0;orthogonalLoop=1;jettySize=auto;html=1;" edge="1" parent="1" source="C1bN3_J689wvFg44kgmb-5" target="C1bN3_J689wvFg44kgmb-23">
          <mxGeometry relative="1" as="geometry" />
        </mxCell>
        <mxCell id="C1bN3_J689wvFg44kgmb-37" value="GET /index.html" style="text;html=1;align=center;verticalAlign=middle;resizable=0;points=[];autosize=1;strokeColor=none;fillColor=none;" vertex="1" parent="1">
          <mxGeometry x="310" y="450" width="110" height="30" as="geometry" />
        </mxCell>
        <mxCell id="C1bN3_J689wvFg44kgmb-38" value="Invalidate&lt;br&gt;- /index.html&lt;br&gt;-/images/*" style="text;html=1;align=left;verticalAlign=middle;resizable=0;points=[];autosize=1;strokeColor=none;fillColor=none;" vertex="1" parent="1">
          <mxGeometry x="470" y="435" width="90" height="60" as="geometry" />
        </mxCell>
      </root>
    </mxGraphModel>
  </diagram>
</mxfile>
